<?xml version="1.0" encoding="UTF-8"?>
<svg id="Layer_1" data-name="Layer 1" xmlns="http://www.w3.org/2000/svg" width="100.01" height="100" viewBox="0 0 100.01 100">
  <path d="m.02,14.46c.39-2.27.95-4.36,2.06-6.3C4.63,3.74,8.44,1.15,13.4.15c.8-.16,1.27.01,1.15,1-.06.53-.18,1.11.3,1.6.46.46.93.81,1.57.5.6-.29,1.12-.64,1.11-1.48-.02-1.68.03-1.72,1.69-1.42,4.12.76,7.35,2.98,9.8,6.3,1.34,1.82,2.22,3.88,2.65,6.13.31,1.66.39,1.69-1.31,1.66-.85-.02-1.28.41-1.61,1.08-.31.63-.07,1.18.35,1.63.46.48,1.11.61,1.74.51,1.01-.16,1.16.39.99,1.15-.58,2.64-1.55,5.14-3.31,7.2-2.19,2.56-4.83,4.52-8.16,5.39-.8.21-1.61.4-2.41.58-.31.07-.46-.06-.44-.4.02-.39,0-.78,0-1.17,0-1.23-.38-1.63-1.53-1.63-1.04,0-1.44.44-1.46,1.59-.03,1.7-.04,1.76-1.64,1.39-2.66-.62-5.07-1.74-7.2-3.54C2.77,25.78,1.16,22.62.23,19.02c-.33-1.28-.07-1.56,1.28-1.57,1.09,0,1.9-.65,1.89-1.5-.01-.89-.77-1.48-1.92-1.49-.46,0-.92,0-1.46,0Zm17.53-5.13c0-.89.02-1.78,0-2.67-.03-1.17-.47-1.61-1.58-1.6-.98,0-1.41.49-1.42,1.65-.01,1.6,0,3.21,0,4.81,0,.47-.06.77-.55,1.1-2.09,1.41-2.47,4.2-.9,6.06,1.25,1.48,4.43,1.75,5.78-.1.39-.53.92-.67,1.58-.64,1.07.05,2.14.04,3.2-.02.79-.04,1.32-.49,1.33-1.32.01-.75-.29-1.28-1.13-1.52-.75-.21-1.48-.15-2.21-.12-1.14.06-2.14.05-2.51-1.32-.05-.18-.27-.36-.46-.43-1.33-.55-1.2-1.68-1.15-2.79.02-.36,0-.71,0-1.07Z" fill="#f0e7db"/>
  <path d="m83.87,100c-8.48.09-15.92-7.26-15.93-16.05-.01-8.91,7.31-16.08,16.03-16.01,9.1.07,16.07,6.99,16.03,16.11-.04,8.81-6.95,15.82-16.13,15.95Zm3.59-11.68c.04.76-.08,1.48-.67,2.02-1.12,1.03-2.51,1.44-3.91,1.03-1.44-.42-2.47-1.45-2.69-3.08-.13-.93-.81-1.46-1.64-1.32-.79.13-1.49,1.06-1.34,1.87.43,2.39,1.69,4.21,3.98,5.11.83.33,1.24.59,1.18,1.56-.06.94.9,1.95,1.59,1.93.78-.02,1.46-.91,1.34-2.03-.09-.86.41-1.12.99-1.34,2.96-1.12,4.12-2.82,4.19-5.95.05-2.25-.96-3.69-2.94-4.65-1.62-.78-3.42-.87-5.09-1.43-.88-.29-1.63-.71-1.99-1.58-.42-1.01.05-2.48.89-3.14,1.06-.82,3.38-1.2,4.19-.75,1.24.69,1.95,1.69,2.14,3.11.09.66.57,1.18,1.24,1.25.62.07,1.49-1.01,1.55-1.66.19-2.34-1.7-4.59-3.98-5.32-1.01-.32-1.34-.75-1.15-1.7.18-.9-.21-1.39-1.08-1.54-.87-.14-1.49.12-1.8,1.03-.14.4-.12.77-.1,1.14.05.6-.16.89-.75,1.03-2.12.51-3.45,2.02-4.08,3.93-.97,2.95.62,5.82,3.55,6.97,1.51.59,3.13.73,4.66,1.26,1.17.4,1.74.98,1.74,2.24Z" fill="#fcd222"/>
  <path d="m34.66,60.01c-.2-.52-.41-1.04-.62-1.56-.53-1.3-1.07-2.59-1.59-3.89-.42-1.05-1.37-1.52-2.27-1.98-.76-.39-1.03-.89-.91-1.68,0-.03,0-.07,0-.11-.26-1.88,0-3.44,2.12-4.2,1.02-.37,1.11-1.57,1.53-2.44.45-.95.75-1.99,1.26-2.9.71-1.27.19-2.45-.1-3.64-.14-.59-.11-1.03.36-1.42.14-.11.25-.26.35-.4,1.13-1.56,2.48-2.25,4.39-1.31.63.31,1.31-.04,1.93-.3,1.3-.54,2.57-1.13,3.89-1.6,1.25-.44,1.88-1.44,2.43-2.5.35-.68.81-1.02,1.58-.87.1.02.22.02.32,0,2.09-.47,3.38.45,4.12,2.35.3.77,1.14.75,1.75,1.06.93.48,1.95.79,2.88,1.28,1.49.79,2.98.64,4.47.14.53-.18.88-.11,1.21.29.09.11.19.22.3.3,1.71,1.16,2.24,2.61,1.43,4.62-.4.99.42,1.95.78,2.9.44,1.15.94,2.27,1.36,3.43.35.96,1.26,1.19,1.99,1.61.81.46,1.11.98,1.21,1.97.21,2.1-.34,3.54-2.44,4.23-.34.11-.52.43-.66.78-.68,1.69-1.36,3.39-2.09,5.06-.52,1.2.18,2.27.26,3.4.01.16.2.37.14.48-.42.8-1.2,1.29-1.78,1.96-.58.68-1.15,1.21-2.17.73-2.08-.98-3.84.24-5.67.95-.33.13-.65.29-.98.37-1.59.39-2.38,1.64-3.04,2.96-.26.51-.56.64-1.07.63-.82-.03-1.65-.08-2.46.02-.74.09-1.16-.25-1.4-.82-.57-1.37-1.52-2.24-2.95-2.71-1.35-.45-2.66-1.02-3.94-1.64-1.05-.51-1.94.1-2.85.31-.7.16-1.16.1-1.59-.42-.02-.03-.06-.04-.09-.06-1.8-1.25-2.53-2.83-1.54-4.94.06-.12.09-.26.15-.42Zm29.4-11.64c.19-.56-.09-.81-.13-1.13-.46-3.48-2.32-6.19-4.88-8.43-2.91-2.56-9.12-3.9-12.82-2.73-1.02.32-2.2.44-3.03,1.04-1.64,1.18-3.41,2.26-4.55,4.03-1.61,2.5-3.21,4.99-2.97,8.18.05.6.26,1.21.19,1.76-.17,1.39.1,2.75.59,3.92,1.42,3.38,3.63,6.11,7.01,7.85,2.1,1.08,4.32,1.19,6.55,1.47.45.06.63-.66,1.01-.37.95.74,1.84-.03,2.66-.18,1.61-.29,3.03-1.25,4.45-2.1,2.55-1.53,3.99-3.9,5.18-6.51.46-1,.5-2.07.79-3.1.19-.68-.05-1.42.2-2.17.15-.47-.54-1.09-.25-1.52Z" fill="#f3951f"/>
  <path d="m16.03,67.92c8.67-.12,16.09,7.37,16.03,16-.06,8.78-6.99,16.13-16.33,16.04C7.28,99.89-.21,92.88,0,83.46c.19-8.34,7.05-15.6,16.02-15.55Zm0,26.71c2.96,0,5.91,0,8.87,0,1.21,0,1.83-.58,1.83-1.8.01-5.95,0-11.9,0-17.84,0-1.08-.63-1.71-1.7-1.72-1.92-.01-3.85-.01-5.77,0-1.06,0-1.66.63-1.67,1.7,0,.89-.04,1.78.01,2.67.03.62-.2.79-.8.77-1.35-.03-2.71-.01-4.06,0-.83,0-1.55.82-1.42,1.22.41,1.19.03,2.36.2,3.51.11.69-.22.84-.85.82-1.14-.04-2.28-.02-3.42-.01-1.53,0-1.89.35-1.9,1.86-.01,2.28-.01,4.56,0,6.84,0,1.46.52,1.96,2.01,1.97,2.89,0,5.77,0,8.66,0Z" fill="#f1634d"/>
  <path d="m87.38,19.44c1.77-1.54,2.73-3.38,3.3-5.5.56-2.1.49-4.2-.11-6.23-1.34-4.58-7.21-6.15-10.8-3.47-2.03,1.51-2.71,3.44-2.79,5.78-.1,2.75.16,5.39,1.93,7.67.47.61,1.01,1.14,1.86,1.8-4.55-.39-8.27.6-10.39,4.97-1.35-1.91-2-3.94-2.35-6.03-.69-4.12.31-7.93,2.62-11.35,2.78-4.1,6.62-6.45,11.63-6.98,2.74-.29,5.34.07,7.8,1.12,3.65,1.55,6.49,4.03,8.26,7.7,1.01,2.1,1.6,4.29,1.66,6.53.07,2.95-.55,5.84-2.14,8.43-.2.33-.32.73-.64.06-1.63-3.47-4.58-4.57-8.17-4.51-.56,0-1.12,0-1.68,0Z" fill="#f1634d"/>
  <path d="m92.95,29.29c-.35-1.26-1-1.78-1.97-1.59-1.05.21-1.33.97-1.2,1.91.16,1.15-.37,1.52-1.43,1.83-3.23.95-6.37.87-9.54-.23-.59-.21-.81-.45-.74-1.04.03-.28-.03-.57.01-.85.13-.89-.27-1.34-1.09-1.65-.99-.37-1.43.16-1.84.87-.11.2-.16.43-.25.66-.49-.1-.55-.63-1.06-.78-.72-.21-.89-1.51-.58-2.64.55-2.02,2.01-3.02,3.96-3.11,4.51-.21,9.04-.14,13.56-.04,2.54.06,4.28,2.37,3.89,4.9-.15.97-1.17,1.12-1.73,1.75Z" fill="#f0e7db"/>
  <path d="m45.84.34c1.13-.01,2.25-.23,3.39-.22,3.87.04,7.68.42,11.47,1.26,2.68.6,5.25,1.46,7.84,2.34.52.18.68.21.23.71-.68.78-.94,2.19-1.85,2.4-.83.2-1.88-.56-2.85-.86-2.77-.85-5.58-1.49-8.47-1.79-2.21-.23-4.43-.52-6.66-.4-5.15.3-10.24.91-15.06,2.91-.67.28-1.18.39-1.5-.54-.21-.6-.7-1.12-1.14-1.6-.48-.52-.17-.77.26-.94,3.11-1.17,6.27-2.15,9.57-2.66,1.59-.24,3.18-.48,4.78-.63Z" fill="#fec444"/>
  <path d="m99.48,43.87c.15,2.46.51,4.9.38,7.38-.33,5.94-1.31,11.73-3.59,17.27-.27.67-.49.42-.81.22-.62-.39-1.17-.89-1.82-1.21-.59-.3-.71-.55-.47-1.2,1.34-3.57,2.2-7.25,2.67-11.05.21-1.69.28-3.4.27-5.05,0-2.27-.03-4.57-.38-6.85-.51-3.38-1.44-6.63-2.57-9.84-.06-.16-.15-.34-.13-.5.05-.38,2.53-1.97,2.89-1.91.22.04.24.16.31.34,1.19,3.24,2.3,6.5,2.77,9.95.11.82.31,1.64.47,2.45Z" fill="#fec444"/>
  <path d="m56.95,99.25c-.66-.18-1.45.34-2.3.38-2.13.09-4.25.15-6.38.16-3.03.02-6.01-.46-8.96-1.09-2.59-.55-5.1-1.37-7.57-2.33-.76-.3-1.02-.52-.32-1.2.44-.43.83-.99,1.02-1.56.27-.82.71-.69,1.27-.44,2.46,1.09,5.07,1.75,7.68,2.25,1.98.38,4.01.72,6.05.72,2.73,0,5.48.19,8.18-.24,3.6-.57,7.2-1.23,10.56-2.75.64-.29.99-.21,1.33.44.35.68.8,1.33,1.28,1.92.36.44.28.48-.22.66-3.31,1.22-6.59,2.53-10.17,2.73-.5.03-.72.65-1.46.34Z" fill="#fec444"/>
  <path d="m.17,49.06c-.16-3.15.39-7.2,1.42-11.15.57-2.17,1.15-4.38,2.09-6.45.15-.34.28-.77.79-.25.36.37.85.61,1.29.9,1.32.87,1.3.86.68,2.37-.7,1.7-1.05,3.5-1.55,5.26-1.25,4.41-1.19,8.94-1.01,13.43.18,4.48,1.24,8.84,2.88,13.03.26.67.18.99-.43,1.28-.35.17-.65.41-.97.63-1.46.97-1.49.98-2.09-.71-1.22-3.46-2.18-6.97-2.68-10.63-.31-2.25-.36-4.5-.42-7.71Z" fill="#fec444"/>
  <path d="m82.74,10.61c1.44-.05,2.87-.15,4.28-.41.57-.1.91-.02.88.73-.05,1.67-.25,3.24-1.24,4.69-1.33,1.97-4.23,2.18-5.52-.08-.47-.83-.88-1.7-1.31-2.54-.54-1.06.47-2.3,1.72-2.39.39-.03.78,0,1.17,0Z" fill="#fec444"/>
  <path d="m16.89,16.03c.15.57-.34.9-.79.94-.44.03-.96-.21-.94-.89.02-.59.26-.97.87-.96.49.01.89.21.86.91Z" fill="#f3951f"/>
  <path d="m48.99,38.8c1.47-.29,3.34.05,5.12.55,1.06.3,2.07,1.01,2.91,1.75.93.81,1.88,1.63,2.59,2.72.94,1.43,1.33,2.98,1.54,4.63.24,1.89.11,3.77-.49,5.55-.41,1.22-1.03,2.38-2.03,3.35-1.2,1.15-2.5,2.14-3.91,3.01-.25.15-.45.3-.75.31-.67.01-1.33.05-1.86.55-.08.08-.29.11-.4.07-1.45-.53-2.9.26-4.41-.16-2.87-.81-4.99-2.42-6.73-4.81-1.78-2.44-2.15-5.16-1.83-7.97.31-2.72,1.64-5.06,3.69-6.88,1.73-1.53,3.76-2.53,6.56-2.67Zm1.14,18.86c2.25.08,3.92-.57,5.95-2.98,1.56-1.84,1.64-4.02,1.52-6.35-.14-2.76-4.12-6.1-7.68-6.07-4.23.03-7.68,3.35-7.66,7.7.01,4.11,3.73,8,7.87,7.7Z" fill="#fec444"/>
  <path d="m23.69,83.9c0,2.21-.03,4.42.02,6.62.02.82-.18,1.14-1.06,1.12-1.99-.04-1.99,0-1.99-2.02,0-4.13.02-8.26-.02-12.39,0-.72.16-.97.93-.96,2.12.03,2.12,0,2.12,2.08,0,1.85,0,3.7,0,5.55Z" fill="#f0e7db"/>
  <path d="m17.33,91.56c-.77.21-1.55.04-2.32.1-.48.04-.5-.24-.5-.6,0-3.02,0-6.04,0-9.05,0-.44.09-.65.58-.62.81.05,1.63.05,2.44.07,0,2.95-.01,5.91-.02,8.86,0,.42.08.86-.18,1.25Z" fill="#fcd222"/>
  <path d="m8.52,87.04q2.99-.33,2.99,2.61c0,.6-.05,1.2-.07,1.81-.7,0-1.41-.04-2.11-.01-.6.02-.8-.24-.79-.82.02-1.19,0-2.39-.02-3.59Z" fill="#fcd222"/>
  <path d="m17.33,91.56c.26-.39.18-.82.18-1.25.01-2.95.02-5.91.02-8.86.3.25.15.59.15.89.01,2.76.02,5.52,0,8.28,0,.32.29.83-.35.94Z" fill="#f3951f"/>
  <path d="m8.52,87.04c0,1.2.03,2.39.02,3.59,0,.58.19.84.79.82.7-.02,1.41,0,2.11.01-.88.34-1.79.09-2.68.15-.26.02-.39-.16-.38-.4.07-1.39-.2-2.78.15-4.16Z" fill="#fec444"/>
</svg>